<svg version="1.1" id="Layer_1" xmlns="http://www.w3.org/2000/svg" xmlns:xlink="http://www.w3.org/1999/xlink" x="0px" y="0px"
	 width="100%" viewBox="0 0 150 150" enable-background="new 0 0 150 150" xml:space="preserve">
<path fill="#FFFFFF" opacity="0.000000" stroke="none" 
	d="
M108.000000,151.000000 
	C72.000000,151.000000 36.500000,151.000000 1.000000,151.000000 
	C1.000000,101.000000 1.000000,51.000000 1.000000,1.000000 
	C51.000000,1.000000 101.000000,1.000000 151.000000,1.000000 
	C151.000000,51.000000 151.000000,101.000000 151.000000,151.000000 
	C136.833328,151.000000 122.666664,151.000000 108.000000,151.000000 
M43.672386,99.936485 
	C52.895260,103.771996 62.118134,107.607513 71.998276,111.716362 
	C71.998276,106.029610 72.134430,101.375633 71.901062,96.740257 
	C71.843826,95.603394 70.832840,93.954254 69.830849,93.510590 
	C57.801815,88.184387 45.681850,83.063934 33.616726,77.818245 
	C32.236031,77.217949 31.043846,76.184067 29.295025,75.045822 
	C31.001226,74.095085 31.933800,73.454674 32.955006,73.024834 
	C44.929943,67.984436 56.931667,63.007240 68.881859,57.909157 
	C70.063965,57.404858 71.784843,56.260609 71.838654,55.331322 
	C72.130669,50.288765 71.977280,45.220417 71.977280,39.891735 
	C70.616142,40.100883 69.924706,40.070267 69.350822,40.315144 
	C50.672478,48.285233 32.098404,56.511463 13.278299,64.130142 
	C7.854238,66.325890 6.220240,69.376122 6.931015,74.752914 
	C7.317713,77.678177 7.000000,80.696548 7.000000,83.764587 
	C19.166185,89.086121 31.092022,94.302528 43.672386,99.936485 
M141.973160,64.472031 
	C125.702248,57.516758 109.435722,50.551178 93.156647,43.615074 
	C89.980659,42.261868 86.755913,41.023098 83.000000,39.508244 
	C83.000000,44.109020 83.351875,47.800716 82.910919,51.395149 
	C82.359932,55.886536 84.528755,57.530369 88.326530,59.085812 
	C100.907867,64.238716 113.316490,69.813293 126.186256,75.397430 
	C111.415260,81.875633 97.178520,88.119522 83.178391,94.259644 
	C83.178391,100.113876 83.178391,105.413933 83.178391,110.844978 
	C84.006401,110.844978 84.743546,111.051056 85.289772,110.815117 
	C103.178970,103.087952 120.885490,94.901665 139.002487,87.755424 
	C146.487778,84.802849 149.013168,80.894112 148.258774,73.029221 
	C147.833984,68.600571 146.919220,65.977409 141.973160,64.472031 
z"/>
<path fill="#0D89D8" opacity="1.000000" stroke="none" 
	d="
M43.345123,99.727707 
	C31.092022,94.302528 19.166185,89.086121 7.000000,83.764587 
	C7.000000,80.696548 7.317713,77.678177 6.931015,74.752914 
	C6.220240,69.376122 7.854238,66.325890 13.278299,64.130142 
	C32.098404,56.511463 50.672478,48.285233 69.350822,40.315144 
	C69.924706,40.070267 70.616142,40.100883 71.977280,39.891735 
	C71.977280,45.220417 72.130669,50.288765 71.838654,55.331322 
	C71.784843,56.260609 70.063965,57.404858 68.881859,57.909157 
	C56.931667,63.007240 44.929943,67.984436 32.955006,73.024834 
	C31.933800,73.454674 31.001226,74.095085 29.295025,75.045822 
	C31.043846,76.184067 32.236031,77.217949 33.616726,77.818245 
	C45.681850,83.063934 57.801815,88.184387 69.830849,93.510590 
	C70.832840,93.954254 71.843826,95.603394 71.901062,96.740257 
	C72.134430,101.375633 71.998276,106.029610 71.998276,111.716362 
	C62.118134,107.607513 52.895260,103.771996 43.345123,99.727707 
z"/>
<path fill="#0D89D8" opacity="1.000000" stroke="none" 
	d="
M142.295471,64.701614 
	C146.919220,65.977409 147.833984,68.600571 148.258774,73.029221 
	C149.013168,80.894112 146.487778,84.802849 139.002487,87.755424 
	C120.885490,94.901665 103.178970,103.087952 85.289772,110.815117 
	C84.743546,111.051056 84.006401,110.844978 83.178391,110.844978 
	C83.178391,105.413933 83.178391,100.113876 83.178391,94.259644 
	C97.178520,88.119522 111.415260,81.875633 126.186256,75.397430 
	C113.316490,69.813293 100.907867,64.238716 88.326530,59.085812 
	C84.528755,57.530369 82.359932,55.886536 82.910919,51.395149 
	C83.351875,47.800716 83.000000,44.109020 83.000000,39.508244 
	C86.755913,41.023098 89.980659,42.261868 93.156647,43.615074 
	C109.435722,50.551178 125.702248,57.516758 142.295471,64.701614 
z"/>
</svg>